<svg version="1.1" id="otherwise-logo-white" xmlns="http://www.w3.org/2000/svg" x="0" y="0" viewBox="0 0 780 293.79" xml:space="preserve"><style>.otherwise-logo-white-st0{fill:#fff}</style><path class="otherwise-logo-white-st0" d="M748.53 141.97c-4.23 10.31-14.17 16.97-25.32 16.97-6.61 0-12.67-2.36-17.4-6.27l61.81-41.21-5.56-8.7c-7.49-11.71-23.1-19.58-38.85-19.58-26.69 0-48.4 21.71-48.4 48.4 0 26.69 21.71 48.4 48.4 48.4 19.71 0 37.29-11.78 44.78-30.02l-19.46-7.99zm-52.67-10.39c0-15.08 12.28-27.35 27.36-27.35 4.45 0 8.99 1.12 12.83 3l-40.09 26.72c-.07-.78-.1-1.57-.1-2.37zM524.65 30.17c.31.31 30.94 31.58 30.98 69.16.02 19.06-11.92 38.81-20.44 50.48L502.6 89.03l-30.4 56.7-47.93-103.47h-12.65v.05L233.89 63.34V9.53h-18.71v56.03l-6.54.77V26.37h-18.71v42.18l-11.62 1.38c-12.79-31.67-43.84-54.08-80.04-54.08C50.7 15.84 12 54.55 12 102.12c0 47.57 38.7 86.28 86.28 86.28s86.28-38.71 86.28-86.28c0-9.23-1.46-18.13-4.16-26.47l9.54-.6v111.89l43.96-29.3v-25.58l14.96-11.22v57.69l31.61-21.07c8.59 13.53 23.7 22.53 40.88 22.53 19.71 0 37.29-11.78 44.78-30.02l-19.46-8c-4.24 10.31-14.17 16.97-25.32 16.97-6.61 0-12.67-2.36-17.4-6.27l61.82-41.21-5.56-8.7c-7.49-11.71-23.11-19.58-38.85-19.58-26.69 0-48.4 21.71-48.4 48.4 0 2.71.23 5.37.67 7.96l-6.04 4.03V83.42l-33.67 25.25v-36.4L412.33 61l58.64 126.59 31.62-58.98 28.95 53.98 8.91-9.55c1.38-1.49 33.92-36.79 33.89-73.73-.05-45.43-34.96-80.87-36.45-82.36l-13.24 13.22zm-361.14 71.95c0 35.97-29.26 65.23-65.24 65.23s-65.23-29.26-65.23-65.23S62.3 36.89 98.27 36.89c25.31 0 47.29 14.5 58.1 35.63L72.1 82.49l86.38-5.46c3.24 7.73 5.03 16.2 5.03 25.09zm157.83 2.11c4.45 0 8.99 1.12 12.83 3l-40.09 26.72c-.07-.78-.1-1.57-.1-2.37 0-15.08 12.27-27.35 27.36-27.35zm-106.16 43.39l-6.54 4.36V73.86l6.54-.41v74.17zm201.03-62.04l13.97 29.94-19.38 9.04-3.29-7.04-17.03 11.73v16.57l9.67 14.5-31.05 20.7V93.7h21.38v9.59l25.73-17.71zm255.7 56.32c0 20.35-16.51 36.91-36.82 36.91h-2.83L613.8 166.5l-30.64 20.43v-76.39h18.71v41.44l35.96-23.97 4.93 7.39.52.78 4.93 7.39-17.54 11.69 6.99 4.66c8.78-1.25 15.55-8.86 15.55-18.03 0-5.91-1.07-6.97-7.03-12.88-.51-.5-1.03-1.02-1.58-1.57-6-6-9.99-11.75-12.06-17.39l-6.12 14.91-17.3-7.1 13.75-33.51h30.17l-2.9 11.62c-.57 2.28-.57 2.8-.57 4.99 0 1.5.8 5.81 8.27 13.28.53.52 1.03 1.02 1.52 1.51 6.73 6.68 12.55 12.45 12.55 26.15zm-88.75-49.13c0-5.17 4.19-9.35 9.35-9.35 5.17 0 9.35 4.18 9.35 9.35s-4.19 9.35-9.35 9.35c-5.16 0-9.35-4.19-9.35-9.35zM243.14 261.3c0 10.56-6.91 17.66-18.33 17.66h-36.29c-.77 0-.86-.1-.86-1.34v-62.78c0-.77.29-.96 1.15-.96h33.6c11.81 0 18.91 6.33 18.91 17.09 0 7.01-4.03 12.29-11.52 14.4 8.25.86 13.34 8.35 13.34 15.93zm-19.3-27.84c0-4.03-2.21-6.14-6.14-6.14h-12.86v12.29h12.86c3.93 0 6.14-2.31 6.14-6.15zm1.44 25.06c0-4.13-2.78-7.1-6.62-7.1h-13.82v14.11h13.82c4.03 0 6.62-2.5 6.62-7.01zM325.69 276.37c1.15 1.92.86 2.59-.19 2.59h-16.99c-.77 0-1.15-.19-2.02-1.92-3.26-6.24-10.27-17.28-10.27-17.28l-11.04.19v18.14c0 .77-.1.86-.77.86h-15.74c-.77 0-.77.1-.77-.86v-63.36c0-.96.48-.86.77-.86h29.76c14.78 0 22.65 10.17 22.65 21.98 0 8.83-3.07 15.07-8.93 17.85 2.51 3.95 7.98 13.65 13.54 22.67zm-22.84-39.26c0-5.09-2.59-8.93-8.16-8.93h-9.5V247l9.6-.29c5.18-.19 8.06-4.03 8.06-9.6zM394.81 277.62c0 1.15-.1 1.34-1.06 1.34h-43.87c-.96 0-1.06-.19-1.06-1.34v-62.78c0-.86-.1-.96.86-.96h43.39c.96 0 1.06.1 1.06 1.25v11.71c0 .86-.29 1.34-1.06 1.34l-27.45-.29v10.85h26.88c.86 0 .96.19.96 1.34v11.71c0 1.15-.1 1.34-.96 1.34h-26.88v11.14l28.13-.29c1.06 0 1.06 0 1.06 1.25v12.39zM493.02 215.13c-10.56 27.36-16.13 40.7-25.15 64.41-.19.58-.67.77-1.15.77-.48 0-.96-.1-1.15-.58-7.58-17.18-13.05-29.37-13.05-29.37s-6.14 13.44-13.25 29.47c-.19.48-.58.58-1.06.58-.48 0-.96-.1-1.15-.58-9.22-23.61-14.3-36.48-24.38-64.22-.58-1.54-.86-1.73.38-1.73h14.78c1.63 0 2.11.38 2.5 1.73 2.3 8.16 9.6 30.24 9.6 30.24s10.17-26.49 12.58-31.68c.29-.58.67-.86 1.15-.86.48 0 .96.29 1.15.86 2.21 5.47 11.71 31.68 11.71 31.68s7.39-22.56 9.79-31.01c.19-1.06.19-.96.96-.96h14.88c1.24 0 1.34 0 .86 1.25zM532.67 278.1c0 .77-.1.86-.96.86h-15.93c-.86 0-.86.1-.86-.86v-63.36c0-.96 0-.86.86-.86h15.93c.86 0 .96.1.96.86v63.36zM616.19 279.44c0 .67 0 1.15-.29 1.25-.19.1-.48 0-.86-.29-14.5-10.85-37.15-31.68-37.15-31.68v29.37c0 .86 0 .86-.86.86h-14.49c-.67 0-.96-.58-.96-.96-.48-24.48-.38-39.74 0-65.08 0-.48.1-.67.29-.77.19-.19.48-.1.77.1 13.73 9.79 37.25 31.58 37.25 31.58v-28.8c0-1.06 0-1.15.77-1.15h14.59c.96 0 .96.19.96 1.15.36 18.73.26 44.46-.02 64.42zM705.27 280.21s0 .38-.86.38c-.38 0-.67-.19-.96-.29l-10.66-6.24c-3.94 3.46-8.06 6.53-17.57 6.53-20.54 0-33.6-13.82-33.6-33.98 0-20.35 14.97-34.08 34.08-34.08 15.46 0 24.19 7.78 28.8 17.66.38.86.48 1.44-.19 1.73l-14.11 5.38c-.67.29-1.15-.19-1.44-.77-2.11-4.32-6.53-7.49-12.86-7.49-10.46 0-16.32 7.2-16.32 17.66 0 10.94 6.24 17.47 16.03 17.47 8.25 0 12.58-5.38 13.73-12.19.1-.58.38-.96.77-.96h14.4c.58 0 .77.19.77.67v28.52z"/></svg>